<mxfile host="Electron" agent="Mozilla/5.0 (Windows NT 10.0; Win64; x64) AppleWebKit/537.36 (KHTML, like Gecko) draw.io/28.0.6 Chrome/138.0.7204.100 Electron/37.2.3 Safari/537.36" version="28.0.6">
  <diagram name="Page-1" id="2KytaOv47t6IDxsQD-Jd">
    <mxGraphModel dx="2674" dy="2247" grid="1" gridSize="10" guides="0" tooltips="1" connect="1" arrows="1" fold="1" page="1" pageScale="1" pageWidth="850" pageHeight="1100" math="0" shadow="0">
      <root>
        <mxCell id="0" />
        <mxCell id="1" parent="0" />
        <mxCell id="-6jR4r3HytJgTuYuLb_f-8" style="edgeStyle=orthogonalEdgeStyle;rounded=0;orthogonalLoop=1;jettySize=auto;html=1;" edge="1" parent="1" source="eqpSWVRwXgy1ZHIJhN9i-1" target="-6jR4r3HytJgTuYuLb_f-9">
          <mxGeometry relative="1" as="geometry">
            <mxPoint x="640" y="660.0000000000005" as="targetPoint" />
            <Array as="points">
              <mxPoint x="740" y="640" />
              <mxPoint x="658" y="640" />
            </Array>
          </mxGeometry>
        </mxCell>
        <mxCell id="eqpSWVRwXgy1ZHIJhN9i-1" value="Data Collection&lt;div&gt;- Pulls information from Yahoo Finance APi&lt;/div&gt;&lt;div&gt;&lt;br&gt;&lt;/div&gt;&lt;div&gt;&lt;br&gt;&lt;/div&gt;" style="html=1;whiteSpace=wrap;" parent="1" vertex="1">
          <mxGeometry x="675" y="550" width="130" height="80" as="geometry" />
        </mxCell>
        <mxCell id="eqpSWVRwXgy1ZHIJhN9i-2" value="" style="edgeStyle=orthogonalEdgeStyle;rounded=0;orthogonalLoop=1;jettySize=auto;html=1;" parent="1" source="eqpSWVRwXgy1ZHIJhN9i-3" target="eqpSWVRwXgy1ZHIJhN9i-5" edge="1">
          <mxGeometry relative="1" as="geometry" />
        </mxCell>
        <mxCell id="eqpSWVRwXgy1ZHIJhN9i-3" value="User Inputs Ticker" style="html=1;whiteSpace=wrap;" parent="1" vertex="1">
          <mxGeometry x="680" y="50" width="120" height="60" as="geometry" />
        </mxCell>
        <mxCell id="eqpSWVRwXgy1ZHIJhN9i-83" value="" style="edgeStyle=orthogonalEdgeStyle;rounded=0;orthogonalLoop=1;jettySize=auto;html=1;" parent="1" source="eqpSWVRwXgy1ZHIJhN9i-5" edge="1">
          <mxGeometry relative="1" as="geometry">
            <mxPoint x="740" y="270" as="targetPoint" />
          </mxGeometry>
        </mxCell>
        <mxCell id="eqpSWVRwXgy1ZHIJhN9i-5" value="System Initialization&lt;div&gt;&lt;span style=&quot;background-color: transparent; color: light-dark(rgb(0, 0, 0), rgb(255, 255, 255));&quot;&gt;- Set up Env&lt;/span&gt;&lt;/div&gt;&lt;div&gt;- Initialize Cache&lt;/div&gt;" style="rounded=0;whiteSpace=wrap;html=1;" parent="1" vertex="1">
          <mxGeometry x="680" y="140" width="120" height="60" as="geometry" />
        </mxCell>
        <mxCell id="eqpSWVRwXgy1ZHIJhN9i-6" value="" style="edgeStyle=orthogonalEdgeStyle;rounded=0;orthogonalLoop=1;jettySize=auto;html=1;" parent="1" source="eqpSWVRwXgy1ZHIJhN9i-9" target="eqpSWVRwXgy1ZHIJhN9i-11" edge="1">
          <mxGeometry relative="1" as="geometry" />
        </mxCell>
        <mxCell id="eqpSWVRwXgy1ZHIJhN9i-7" value="" style="edgeStyle=orthogonalEdgeStyle;rounded=0;orthogonalLoop=1;jettySize=auto;html=1;" parent="1" source="eqpSWVRwXgy1ZHIJhN9i-9" target="eqpSWVRwXgy1ZHIJhN9i-13" edge="1">
          <mxGeometry relative="1" as="geometry" />
        </mxCell>
        <mxCell id="eqpSWVRwXgy1ZHIJhN9i-8" value="" style="edgeStyle=orthogonalEdgeStyle;rounded=0;orthogonalLoop=1;jettySize=auto;html=1;" parent="1" source="eqpSWVRwXgy1ZHIJhN9i-9" target="eqpSWVRwXgy1ZHIJhN9i-16" edge="1">
          <mxGeometry relative="1" as="geometry" />
        </mxCell>
        <mxCell id="eqpSWVRwXgy1ZHIJhN9i-9" value="&lt;b&gt;Data Analyst Agent&lt;/b&gt;&lt;div&gt;- Provides Historical Data&lt;/div&gt;&lt;div&gt;- Patterns&lt;/div&gt;&lt;div&gt;- Data Quality&lt;/div&gt;" style="whiteSpace=wrap;html=1;" parent="1" vertex="1">
          <mxGeometry x="690" y="820" width="120" height="91" as="geometry" />
        </mxCell>
        <mxCell id="eqpSWVRwXgy1ZHIJhN9i-10" value="" style="edgeStyle=orthogonalEdgeStyle;rounded=0;orthogonalLoop=1;jettySize=auto;html=1;" parent="1" source="eqpSWVRwXgy1ZHIJhN9i-11" edge="1">
          <mxGeometry relative="1" as="geometry">
            <mxPoint x="160" y="864.9999999999998" as="targetPoint" />
          </mxGeometry>
        </mxCell>
        <mxCell id="eqpSWVRwXgy1ZHIJhN9i-11" value="&lt;b&gt;Technical Analyzer Agent&lt;/b&gt;&lt;div&gt;&lt;b&gt;- &lt;/b&gt;20+ Technical Indicators&lt;/div&gt;&lt;div&gt;- Pattern Recognition&lt;/div&gt;&lt;div&gt;-Support/Resistance&lt;/div&gt;&lt;div&gt;- Trading Signals&lt;/div&gt;&lt;div&gt;&lt;br&gt;&lt;/div&gt;" style="whiteSpace=wrap;html=1;" parent="1" vertex="1">
          <mxGeometry x="280" y="821" width="170" height="90" as="geometry" />
        </mxCell>
        <mxCell id="eqpSWVRwXgy1ZHIJhN9i-12" value="" style="edgeStyle=orthogonalEdgeStyle;rounded=0;orthogonalLoop=1;jettySize=auto;html=1;entryX=0;entryY=0.5;entryDx=0;entryDy=0;" parent="1" source="eqpSWVRwXgy1ZHIJhN9i-13" target="eqpSWVRwXgy1ZHIJhN9i-73" edge="1">
          <mxGeometry relative="1" as="geometry">
            <mxPoint x="1110" y="865" as="targetPoint" />
          </mxGeometry>
        </mxCell>
        <mxCell id="eqpSWVRwXgy1ZHIJhN9i-13" value="&lt;b&gt;Sentiment Analysis Agent&lt;/b&gt;&lt;div&gt;&lt;b&gt;- &lt;/b&gt;News Sentiment [Calls NEWSAPI]&lt;/div&gt;&lt;div&gt;- Reddit Sentiment [Calls REDDIT API]&lt;/div&gt;&lt;div&gt;- Market Sentiment and Social Media&lt;/div&gt;" style="whiteSpace=wrap;html=1;" parent="1" vertex="1">
          <mxGeometry x="880" y="820" width="200" height="90" as="geometry" />
        </mxCell>
        <mxCell id="eqpSWVRwXgy1ZHIJhN9i-63" value="" style="edgeStyle=orthogonalEdgeStyle;rounded=0;orthogonalLoop=1;jettySize=auto;html=1;" parent="1" edge="1">
          <mxGeometry relative="1" as="geometry">
            <mxPoint x="119.09" y="905" as="sourcePoint" />
            <mxPoint x="119.18090909090901" y="1010.090909090909" as="targetPoint" />
          </mxGeometry>
        </mxCell>
        <mxCell id="eqpSWVRwXgy1ZHIJhN9i-15" value="" style="edgeStyle=orthogonalEdgeStyle;rounded=0;orthogonalLoop=1;jettySize=auto;html=1;" parent="1" source="eqpSWVRwXgy1ZHIJhN9i-16" target="eqpSWVRwXgy1ZHIJhN9i-21" edge="1">
          <mxGeometry relative="1" as="geometry" />
        </mxCell>
        <mxCell id="eqpSWVRwXgy1ZHIJhN9i-16" value="Structured Data Package" style="whiteSpace=wrap;html=1;" parent="1" vertex="1">
          <mxGeometry x="690" y="930" width="120" height="90" as="geometry" />
        </mxCell>
        <mxCell id="eqpSWVRwXgy1ZHIJhN9i-107" value="" style="edgeStyle=orthogonalEdgeStyle;rounded=0;orthogonalLoop=1;jettySize=auto;html=1;" parent="1" source="eqpSWVRwXgy1ZHIJhN9i-21" target="eqpSWVRwXgy1ZHIJhN9i-23" edge="1">
          <mxGeometry relative="1" as="geometry" />
        </mxCell>
        <mxCell id="eqpSWVRwXgy1ZHIJhN9i-21" value="&lt;b&gt;Sentiment Integration Agent&lt;/b&gt;&lt;div&gt;- Signal Alignment&lt;/div&gt;&lt;div&gt;- Confidence Adjustment&lt;/div&gt;&lt;div&gt;- Risk Assessment&lt;/div&gt;&lt;div&gt;-Integrated Scoring&lt;/div&gt;" style="whiteSpace=wrap;html=1;" parent="1" vertex="1">
          <mxGeometry x="690" y="1110" width="120" height="130" as="geometry" />
        </mxCell>
        <mxCell id="eqpSWVRwXgy1ZHIJhN9i-108" value="" style="edgeStyle=orthogonalEdgeStyle;rounded=0;orthogonalLoop=1;jettySize=auto;html=1;" parent="1" source="eqpSWVRwXgy1ZHIJhN9i-23" target="eqpSWVRwXgy1ZHIJhN9i-25" edge="1">
          <mxGeometry relative="1" as="geometry" />
        </mxCell>
        <mxCell id="eqpSWVRwXgy1ZHIJhN9i-23" value="&lt;b&gt;Integrated Analysis&lt;/b&gt;&lt;div&gt;&lt;span style=&quot;background-color: transparent; color: light-dark(rgb(0, 0, 0), rgb(255, 255, 255));&quot;&gt;&amp;nbsp; Providing User with a weighted score and factors of each piece of analysis&lt;/span&gt;&lt;/div&gt;" style="whiteSpace=wrap;html=1;" parent="1" vertex="1">
          <mxGeometry x="690" y="1300" width="120" height="90" as="geometry" />
        </mxCell>
        <mxCell id="-6jR4r3HytJgTuYuLb_f-2" value="" style="edgeStyle=orthogonalEdgeStyle;rounded=0;orthogonalLoop=1;jettySize=auto;html=1;" edge="1" parent="1" source="eqpSWVRwXgy1ZHIJhN9i-25" target="-6jR4r3HytJgTuYuLb_f-1">
          <mxGeometry relative="1" as="geometry" />
        </mxCell>
        <mxCell id="eqpSWVRwXgy1ZHIJhN9i-25" value="&lt;b&gt;Prediction Agent (LLM)&lt;/b&gt;&lt;div&gt;- Gemini/Groq Integration&lt;/div&gt;&lt;div&gt;- Direction Prediction&lt;/div&gt;&lt;div&gt;-Confidence Scoring&lt;/div&gt;&lt;div&gt;- Risk Assessment&lt;/div&gt;" style="whiteSpace=wrap;html=1;" parent="1" vertex="1">
          <mxGeometry x="690" y="1430" width="120" height="130" as="geometry" />
        </mxCell>
        <mxCell id="eqpSWVRwXgy1ZHIJhN9i-26" value="" style="edgeStyle=orthogonalEdgeStyle;rounded=0;orthogonalLoop=1;jettySize=auto;html=1;" parent="1" source="eqpSWVRwXgy1ZHIJhN9i-29" target="eqpSWVRwXgy1ZHIJhN9i-30" edge="1">
          <mxGeometry relative="1" as="geometry" />
        </mxCell>
        <mxCell id="eqpSWVRwXgy1ZHIJhN9i-27" value="" style="edgeStyle=orthogonalEdgeStyle;rounded=0;orthogonalLoop=1;jettySize=auto;html=1;" parent="1" source="eqpSWVRwXgy1ZHIJhN9i-29" target="eqpSWVRwXgy1ZHIJhN9i-31" edge="1">
          <mxGeometry relative="1" as="geometry" />
        </mxCell>
        <mxCell id="eqpSWVRwXgy1ZHIJhN9i-28" value="" style="edgeStyle=orthogonalEdgeStyle;rounded=0;orthogonalLoop=1;jettySize=auto;html=1;" parent="1" source="eqpSWVRwXgy1ZHIJhN9i-29" target="eqpSWVRwXgy1ZHIJhN9i-32" edge="1">
          <mxGeometry relative="1" as="geometry" />
        </mxCell>
        <mxCell id="eqpSWVRwXgy1ZHIJhN9i-29" value="Final Prediction" style="whiteSpace=wrap;html=1;" parent="1" vertex="1">
          <mxGeometry x="690" y="1760" width="120" height="60" as="geometry" />
        </mxCell>
        <mxCell id="eqpSWVRwXgy1ZHIJhN9i-30" value="&lt;b&gt;API Endpoints&lt;/b&gt;&lt;div&gt;Access&lt;/div&gt;&lt;div&gt;Integration&amp;nbsp;&lt;/div&gt;&lt;div&gt;Scale&lt;/div&gt;" style="whiteSpace=wrap;html=1;" parent="1" vertex="1">
          <mxGeometry x="890" y="1760" width="120" height="60" as="geometry" />
        </mxCell>
        <mxCell id="eqpSWVRwXgy1ZHIJhN9i-31" value="&lt;b&gt;Chatbot Interface&lt;/b&gt;&lt;div&gt;&lt;b&gt;-&lt;/b&gt;Conversational AI&lt;/div&gt;&lt;div&gt;- Natural Language&lt;/div&gt;&lt;div&gt;-User-Friendly&lt;/div&gt;" style="whiteSpace=wrap;html=1;" parent="1" vertex="1">
          <mxGeometry x="480" y="1760" width="120" height="60" as="geometry" />
        </mxCell>
        <mxCell id="eqpSWVRwXgy1ZHIJhN9i-51" style="edgeStyle=orthogonalEdgeStyle;rounded=0;orthogonalLoop=1;jettySize=auto;html=1;entryX=0.5;entryY=0;entryDx=0;entryDy=0;" parent="1" source="eqpSWVRwXgy1ZHIJhN9i-32" target="eqpSWVRwXgy1ZHIJhN9i-36" edge="1">
          <mxGeometry relative="1" as="geometry" />
        </mxCell>
        <mxCell id="eqpSWVRwXgy1ZHIJhN9i-32" value="&lt;b&gt;Dashboard&lt;/b&gt;&lt;div&gt;&lt;b&gt;- &lt;/b&gt;Visual Charts&lt;/div&gt;&lt;div&gt;-Analysis Display&lt;/div&gt;&lt;div&gt;- Interactive&lt;/div&gt;" style="whiteSpace=wrap;html=1;" parent="1" vertex="1">
          <mxGeometry x="690" y="1870" width="120" height="70" as="geometry" />
        </mxCell>
        <mxCell id="eqpSWVRwXgy1ZHIJhN9i-33" value="API&#39;s Used&lt;div&gt;- Yahoo Finance&lt;/div&gt;&lt;div&gt;-Alpha Vantage&lt;/div&gt;&lt;div&gt;- News&lt;/div&gt;&lt;div&gt;- Weather&lt;/div&gt;&lt;div&gt;- Sentiment (Reddit)&lt;/div&gt;&lt;div&gt;- GEMINI&lt;/div&gt;&lt;div&gt;-Groq&lt;/div&gt;" style="shape=note;whiteSpace=wrap;html=1;backgroundOutline=1;darkOpacity=0.05;" parent="1" vertex="1">
          <mxGeometry x="960" y="90" width="170" height="210" as="geometry" />
        </mxCell>
        <mxCell id="eqpSWVRwXgy1ZHIJhN9i-34" value="" style="ellipse;html=1;shape=startState;fillColor=#000000;strokeColor=#ff0000;" parent="1" vertex="1">
          <mxGeometry x="720" y="-40" width="30" height="30" as="geometry" />
        </mxCell>
        <mxCell id="eqpSWVRwXgy1ZHIJhN9i-35" value="" style="edgeStyle=orthogonalEdgeStyle;html=1;verticalAlign=bottom;endArrow=open;endSize=8;strokeColor=#ff0000;rounded=0;" parent="1" source="eqpSWVRwXgy1ZHIJhN9i-34" edge="1">
          <mxGeometry relative="1" as="geometry">
            <mxPoint x="735" y="50" as="targetPoint" />
          </mxGeometry>
        </mxCell>
        <mxCell id="eqpSWVRwXgy1ZHIJhN9i-36" value="" style="ellipse;html=1;shape=endState;fillColor=#000000;strokeColor=#ff0000;" parent="1" vertex="1">
          <mxGeometry x="735" y="2010" width="30" height="30" as="geometry" />
        </mxCell>
        <mxCell id="eqpSWVRwXgy1ZHIJhN9i-85" style="edgeStyle=orthogonalEdgeStyle;rounded=0;orthogonalLoop=1;jettySize=auto;html=1;" parent="1" source="eqpSWVRwXgy1ZHIJhN9i-70" edge="1">
          <mxGeometry relative="1" as="geometry">
            <mxPoint x="750" y="1050.0000000000002" as="targetPoint" />
          </mxGeometry>
        </mxCell>
        <mxCell id="eqpSWVRwXgy1ZHIJhN9i-70" value="Technical Analysis" style="whiteSpace=wrap;html=1;" parent="1" vertex="1">
          <mxGeometry x="65" y="1010" width="110" height="80" as="geometry" />
        </mxCell>
        <mxCell id="eqpSWVRwXgy1ZHIJhN9i-71" value="" style="rhombus;whiteSpace=wrap;html=1;" parent="1" vertex="1">
          <mxGeometry x="80" y="825" width="80" height="80" as="geometry" />
        </mxCell>
        <mxCell id="eqpSWVRwXgy1ZHIJhN9i-87" style="edgeStyle=orthogonalEdgeStyle;rounded=0;orthogonalLoop=1;jettySize=auto;html=1;exitX=0;exitY=0.5;exitDx=0;exitDy=0;" parent="1" source="eqpSWVRwXgy1ZHIJhN9i-72" edge="1">
          <mxGeometry relative="1" as="geometry">
            <mxPoint x="750" y="1050.0000000000002" as="targetPoint" />
            <Array as="points">
              <mxPoint x="1100" y="1050" />
            </Array>
          </mxGeometry>
        </mxCell>
        <mxCell id="eqpSWVRwXgy1ZHIJhN9i-90" style="edgeStyle=orthogonalEdgeStyle;rounded=0;orthogonalLoop=1;jettySize=auto;html=1;entryX=1;entryY=0.5;entryDx=0;entryDy=0;exitX=1;exitY=0.5;exitDx=0;exitDy=0;" parent="1" source="eqpSWVRwXgy1ZHIJhN9i-73" target="eqpSWVRwXgy1ZHIJhN9i-21" edge="1">
          <mxGeometry relative="1" as="geometry">
            <Array as="points">
              <mxPoint x="1320" y="865" />
              <mxPoint x="1320" y="1175" />
            </Array>
          </mxGeometry>
        </mxCell>
        <mxCell id="eqpSWVRwXgy1ZHIJhN9i-72" value="Sentiment Analysis" style="whiteSpace=wrap;html=1;" parent="1" vertex="1">
          <mxGeometry x="1130" y="1020" width="120" height="60" as="geometry" />
        </mxCell>
        <mxCell id="eqpSWVRwXgy1ZHIJhN9i-89" value="" style="edgeStyle=orthogonalEdgeStyle;rounded=0;orthogonalLoop=1;jettySize=auto;html=1;" parent="1" source="eqpSWVRwXgy1ZHIJhN9i-73" target="eqpSWVRwXgy1ZHIJhN9i-72" edge="1">
          <mxGeometry relative="1" as="geometry" />
        </mxCell>
        <mxCell id="eqpSWVRwXgy1ZHIJhN9i-73" value="" style="rhombus;whiteSpace=wrap;html=1;" parent="1" vertex="1">
          <mxGeometry x="1150" y="825" width="80" height="80" as="geometry" />
        </mxCell>
        <mxCell id="eqpSWVRwXgy1ZHIJhN9i-80" value="If API calls and Agent function without errors" style="text;html=1;align=center;verticalAlign=middle;resizable=0;points=[];autosize=1;strokeColor=none;fillColor=none;" parent="1" vertex="1">
          <mxGeometry x="1060" y="779" width="260" height="30" as="geometry" />
        </mxCell>
        <mxCell id="eqpSWVRwXgy1ZHIJhN9i-84" value="Agent and API calls function as expected" style="text;html=1;align=center;verticalAlign=middle;resizable=0;points=[];autosize=1;strokeColor=none;fillColor=none;" parent="1" vertex="1">
          <mxGeometry y="791" width="240" height="30" as="geometry" />
        </mxCell>
        <mxCell id="eqpSWVRwXgy1ZHIJhN9i-91" value="If YES" style="text;html=1;align=center;verticalAlign=middle;resizable=0;points=[];autosize=1;strokeColor=none;fillColor=none;" parent="1" vertex="1">
          <mxGeometry x="1115" y="940" width="60" height="30" as="geometry" />
        </mxCell>
        <mxCell id="eqpSWVRwXgy1ZHIJhN9i-92" value="If NO" style="text;html=1;align=center;verticalAlign=middle;resizable=0;points=[];autosize=1;strokeColor=none;fillColor=none;" parent="1" vertex="1">
          <mxGeometry x="1250" y="825" width="50" height="30" as="geometry" />
        </mxCell>
        <mxCell id="-6jR4r3HytJgTuYuLb_f-6" value="" style="edgeStyle=orthogonalEdgeStyle;rounded=0;orthogonalLoop=1;jettySize=auto;html=1;" edge="1" parent="1" source="eqpSWVRwXgy1ZHIJhN9i-96" target="eqpSWVRwXgy1ZHIJhN9i-1">
          <mxGeometry relative="1" as="geometry" />
        </mxCell>
        <mxCell id="-6jR4r3HytJgTuYuLb_f-62" style="edgeStyle=orthogonalEdgeStyle;rounded=0;orthogonalLoop=1;jettySize=auto;html=1;entryX=0.5;entryY=1;entryDx=0;entryDy=0;" edge="1" parent="1" source="eqpSWVRwXgy1ZHIJhN9i-96" target="eqpSWVRwXgy1ZHIJhN9i-36">
          <mxGeometry relative="1" as="geometry">
            <Array as="points">
              <mxPoint x="1480" y="480" />
              <mxPoint x="1480" y="2060" />
              <mxPoint x="750" y="2060" />
            </Array>
          </mxGeometry>
        </mxCell>
        <mxCell id="eqpSWVRwXgy1ZHIJhN9i-96" value="" style="rhombus;whiteSpace=wrap;html=1;" parent="1" vertex="1">
          <mxGeometry x="700" y="440" width="80" height="80" as="geometry" />
        </mxCell>
        <mxCell id="eqpSWVRwXgy1ZHIJhN9i-102" value="" style="edgeStyle=orthogonalEdgeStyle;rounded=0;orthogonalLoop=1;jettySize=auto;html=1;" parent="1" source="eqpSWVRwXgy1ZHIJhN9i-97" target="eqpSWVRwXgy1ZHIJhN9i-96" edge="1">
          <mxGeometry relative="1" as="geometry" />
        </mxCell>
        <mxCell id="eqpSWVRwXgy1ZHIJhN9i-97" value="&lt;b&gt;Orchestration Agent&lt;/b&gt;&lt;div&gt;&lt;b&gt;- &lt;/b&gt;Delegate Tasks&lt;/div&gt;&lt;div&gt;- Check functional validity&lt;/div&gt;&lt;div&gt;- Determine Parameters&lt;/div&gt;&lt;div&gt;- Initialize Workflow&lt;/div&gt;" style="rounded=0;whiteSpace=wrap;html=1;" parent="1" vertex="1">
          <mxGeometry x="680" y="270" width="120" height="110" as="geometry" />
        </mxCell>
        <mxCell id="eqpSWVRwXgy1ZHIJhN9i-104" value="Can Validate Ticker, check market status and parameters" style="text;html=1;align=center;verticalAlign=middle;resizable=0;points=[];autosize=1;strokeColor=none;fillColor=none;" parent="1" vertex="1">
          <mxGeometry x="360" y="465" width="330" height="30" as="geometry" />
        </mxCell>
        <mxCell id="eqpSWVRwXgy1ZHIJhN9i-105" value="If YES" style="text;html=1;align=center;verticalAlign=middle;resizable=0;points=[];autosize=1;strokeColor=none;fillColor=none;" parent="1" vertex="1">
          <mxGeometry x="670" y="520" width="60" height="30" as="geometry" />
        </mxCell>
        <mxCell id="eqpSWVRwXgy1ZHIJhN9i-106" value="If NO" style="text;html=1;align=center;verticalAlign=middle;resizable=0;points=[];autosize=1;strokeColor=none;fillColor=none;" parent="1" vertex="1">
          <mxGeometry x="840" y="440" width="50" height="30" as="geometry" />
        </mxCell>
        <mxCell id="eqpSWVRwXgy1ZHIJhN9i-109" value="If YES" style="text;html=1;align=center;verticalAlign=middle;resizable=0;points=[];autosize=1;strokeColor=none;fillColor=none;" parent="1" vertex="1">
          <mxGeometry x="120" y="940" width="60" height="30" as="geometry" />
        </mxCell>
        <mxCell id="eqpSWVRwXgy1ZHIJhN9i-113" value="If NO" style="text;html=1;align=center;verticalAlign=middle;resizable=0;points=[];autosize=1;strokeColor=none;fillColor=none;" parent="1" vertex="1">
          <mxGeometry x="-80" y="905" width="50" height="30" as="geometry" />
        </mxCell>
        <mxCell id="eqpSWVRwXgy1ZHIJhN9i-115" style="edgeStyle=orthogonalEdgeStyle;rounded=0;orthogonalLoop=1;jettySize=auto;html=1;entryX=0.479;entryY=0.057;entryDx=0;entryDy=0;entryPerimeter=0;" parent="1" source="eqpSWVRwXgy1ZHIJhN9i-30" target="eqpSWVRwXgy1ZHIJhN9i-36" edge="1">
          <mxGeometry relative="1" as="geometry">
            <mxPoint x="750" y="2000" as="targetPoint" />
            <Array as="points">
              <mxPoint x="950" y="2010" />
              <mxPoint x="749" y="2010" />
            </Array>
          </mxGeometry>
        </mxCell>
        <mxCell id="eqpSWVRwXgy1ZHIJhN9i-118" style="edgeStyle=orthogonalEdgeStyle;rounded=0;orthogonalLoop=1;jettySize=auto;html=1;entryX=0.53;entryY=0.074;entryDx=0;entryDy=0;entryPerimeter=0;" parent="1" source="eqpSWVRwXgy1ZHIJhN9i-31" target="eqpSWVRwXgy1ZHIJhN9i-36" edge="1">
          <mxGeometry relative="1" as="geometry">
            <Array as="points">
              <mxPoint x="540" y="2010" />
              <mxPoint x="751" y="2010" />
            </Array>
          </mxGeometry>
        </mxCell>
        <mxCell id="-6jR4r3HytJgTuYuLb_f-34" value="" style="edgeStyle=orthogonalEdgeStyle;rounded=0;orthogonalLoop=1;jettySize=auto;html=1;" edge="1" parent="1" source="-6jR4r3HytJgTuYuLb_f-1" target="-6jR4r3HytJgTuYuLb_f-33">
          <mxGeometry relative="1" as="geometry" />
        </mxCell>
        <mxCell id="-6jR4r3HytJgTuYuLb_f-1" value="" style="rhombus;whiteSpace=wrap;html=1;" vertex="1" parent="1">
          <mxGeometry x="730" y="1590" width="40" height="40" as="geometry" />
        </mxCell>
        <mxCell id="-6jR4r3HytJgTuYuLb_f-11" value="" style="edgeStyle=orthogonalEdgeStyle;rounded=0;orthogonalLoop=1;jettySize=auto;html=1;" edge="1" parent="1" source="-6jR4r3HytJgTuYuLb_f-9" target="-6jR4r3HytJgTuYuLb_f-10">
          <mxGeometry relative="1" as="geometry" />
        </mxCell>
        <mxCell id="-6jR4r3HytJgTuYuLb_f-14" value="" style="edgeStyle=orthogonalEdgeStyle;rounded=0;orthogonalLoop=1;jettySize=auto;html=1;" edge="1" parent="1" source="-6jR4r3HytJgTuYuLb_f-9" target="-6jR4r3HytJgTuYuLb_f-13">
          <mxGeometry relative="1" as="geometry" />
        </mxCell>
        <mxCell id="-6jR4r3HytJgTuYuLb_f-9" value="" style="rhombus;whiteSpace=wrap;html=1;" vertex="1" parent="1">
          <mxGeometry x="635" y="650" width="45" height="40" as="geometry" />
        </mxCell>
        <mxCell id="-6jR4r3HytJgTuYuLb_f-49" style="edgeStyle=orthogonalEdgeStyle;rounded=0;orthogonalLoop=1;jettySize=auto;html=1;exitX=0.5;exitY=1;exitDx=0;exitDy=0;entryX=0.25;entryY=0;entryDx=0;entryDy=0;" edge="1" parent="1" source="-6jR4r3HytJgTuYuLb_f-10" target="eqpSWVRwXgy1ZHIJhN9i-9">
          <mxGeometry relative="1" as="geometry" />
        </mxCell>
        <mxCell id="-6jR4r3HytJgTuYuLb_f-10" value="Yahoo Finance Data" style="whiteSpace=wrap;html=1;" vertex="1" parent="1">
          <mxGeometry x="617.5" y="720" width="80" height="40" as="geometry" />
        </mxCell>
        <mxCell id="-6jR4r3HytJgTuYuLb_f-12" value="If YES" style="text;html=1;align=center;verticalAlign=middle;resizable=0;points=[];autosize=1;strokeColor=none;fillColor=none;" vertex="1" parent="1">
          <mxGeometry x="660" y="685" width="60" height="30" as="geometry" />
        </mxCell>
        <mxCell id="-6jR4r3HytJgTuYuLb_f-17" value="" style="edgeStyle=orthogonalEdgeStyle;rounded=0;orthogonalLoop=1;jettySize=auto;html=1;" edge="1" parent="1" source="-6jR4r3HytJgTuYuLb_f-13" target="-6jR4r3HytJgTuYuLb_f-16">
          <mxGeometry relative="1" as="geometry" />
        </mxCell>
        <mxCell id="-6jR4r3HytJgTuYuLb_f-13" value="Fallback to AlphaVantage API" style="whiteSpace=wrap;html=1;" vertex="1" parent="1">
          <mxGeometry x="780" y="660" width="240" height="20" as="geometry" />
        </mxCell>
        <mxCell id="-6jR4r3HytJgTuYuLb_f-15" value="If No" style="text;html=1;align=center;verticalAlign=middle;resizable=0;points=[];autosize=1;strokeColor=none;fillColor=none;" vertex="1" parent="1">
          <mxGeometry x="715" y="668" width="50" height="30" as="geometry" />
        </mxCell>
        <mxCell id="-6jR4r3HytJgTuYuLb_f-18" style="edgeStyle=orthogonalEdgeStyle;rounded=0;orthogonalLoop=1;jettySize=auto;html=1;entryX=0.5;entryY=0;entryDx=0;entryDy=0;" edge="1" parent="1" source="-6jR4r3HytJgTuYuLb_f-16" target="eqpSWVRwXgy1ZHIJhN9i-9">
          <mxGeometry relative="1" as="geometry">
            <mxPoint x="750" y="800" as="targetPoint" />
          </mxGeometry>
        </mxCell>
        <mxCell id="-6jR4r3HytJgTuYuLb_f-22" style="edgeStyle=orthogonalEdgeStyle;rounded=0;orthogonalLoop=1;jettySize=auto;html=1;entryX=1;entryY=0.5;entryDx=0;entryDy=0;" edge="1" parent="1" source="-6jR4r3HytJgTuYuLb_f-16" target="eqpSWVRwXgy1ZHIJhN9i-36">
          <mxGeometry relative="1" as="geometry">
            <Array as="points">
              <mxPoint x="1350" y="720" />
              <mxPoint x="1350" y="1980" />
              <mxPoint x="780" y="1980" />
              <mxPoint x="780" y="2025" />
            </Array>
          </mxGeometry>
        </mxCell>
        <mxCell id="-6jR4r3HytJgTuYuLb_f-16" value="" style="rhombus;whiteSpace=wrap;html=1;" vertex="1" parent="1">
          <mxGeometry x="890" y="710" width="20" height="20" as="geometry" />
        </mxCell>
        <mxCell id="-6jR4r3HytJgTuYuLb_f-19" value="If YES" style="text;html=1;align=center;verticalAlign=middle;resizable=0;points=[];autosize=1;strokeColor=none;fillColor=none;" vertex="1" parent="1">
          <mxGeometry x="780" y="718" width="60" height="30" as="geometry" />
        </mxCell>
        <mxCell id="-6jR4r3HytJgTuYuLb_f-21" value="Information Available and retrieved" style="text;html=1;align=center;verticalAlign=middle;resizable=0;points=[];autosize=1;strokeColor=none;fillColor=none;" vertex="1" parent="1">
          <mxGeometry x="425" y="655" width="210" height="30" as="geometry" />
        </mxCell>
        <mxCell id="-6jR4r3HytJgTuYuLb_f-23" value="If NO" style="text;html=1;align=center;verticalAlign=middle;resizable=0;points=[];autosize=1;strokeColor=none;fillColor=none;" vertex="1" parent="1">
          <mxGeometry x="1050" y="690" width="50" height="30" as="geometry" />
        </mxCell>
        <mxCell id="-6jR4r3HytJgTuYuLb_f-26" value="Information Available and Data Retrieved" style="text;html=1;align=center;verticalAlign=middle;resizable=0;points=[];autosize=1;strokeColor=none;fillColor=none;" vertex="1" parent="1">
          <mxGeometry x="780" y="740" width="240" height="30" as="geometry" />
        </mxCell>
        <mxCell id="-6jR4r3HytJgTuYuLb_f-29" value="Is Groq Able to create a prediction" style="text;html=1;align=center;verticalAlign=middle;resizable=0;points=[];autosize=1;strokeColor=none;fillColor=none;" vertex="1" parent="1">
          <mxGeometry x="520" y="1600" width="200" height="30" as="geometry" />
        </mxCell>
        <mxCell id="-6jR4r3HytJgTuYuLb_f-30" style="edgeStyle=orthogonalEdgeStyle;rounded=0;orthogonalLoop=1;jettySize=auto;html=1;exitX=0.5;exitY=1;exitDx=0;exitDy=0;entryX=0.146;entryY=0.018;entryDx=0;entryDy=0;entryPerimeter=0;" edge="1" parent="1" source="-6jR4r3HytJgTuYuLb_f-1" target="eqpSWVRwXgy1ZHIJhN9i-29">
          <mxGeometry relative="1" as="geometry">
            <Array as="points">
              <mxPoint x="680" y="1630" />
              <mxPoint x="680" y="1695" />
              <mxPoint x="708" y="1695" />
            </Array>
          </mxGeometry>
        </mxCell>
        <mxCell id="-6jR4r3HytJgTuYuLb_f-31" value="If Yes" style="text;html=1;align=center;verticalAlign=middle;resizable=0;points=[];autosize=1;strokeColor=none;fillColor=none;" vertex="1" parent="1">
          <mxGeometry x="685" y="1648" width="50" height="30" as="geometry" />
        </mxCell>
        <mxCell id="-6jR4r3HytJgTuYuLb_f-37" value="" style="edgeStyle=orthogonalEdgeStyle;rounded=0;orthogonalLoop=1;jettySize=auto;html=1;" edge="1" parent="1" source="-6jR4r3HytJgTuYuLb_f-33" target="-6jR4r3HytJgTuYuLb_f-36">
          <mxGeometry relative="1" as="geometry" />
        </mxCell>
        <mxCell id="-6jR4r3HytJgTuYuLb_f-33" value="Fallback to GEMINI API" style="whiteSpace=wrap;html=1;" vertex="1" parent="1">
          <mxGeometry x="850" y="1590" width="100" height="40" as="geometry" />
        </mxCell>
        <mxCell id="-6jR4r3HytJgTuYuLb_f-35" value="If NO" style="text;html=1;align=center;verticalAlign=middle;resizable=0;points=[];autosize=1;strokeColor=none;fillColor=none;" vertex="1" parent="1">
          <mxGeometry x="780" y="1620" width="50" height="30" as="geometry" />
        </mxCell>
        <mxCell id="-6jR4r3HytJgTuYuLb_f-43" style="edgeStyle=orthogonalEdgeStyle;rounded=0;orthogonalLoop=1;jettySize=auto;html=1;exitX=0.5;exitY=1;exitDx=0;exitDy=0;entryX=0.75;entryY=0;entryDx=0;entryDy=0;" edge="1" parent="1" source="-6jR4r3HytJgTuYuLb_f-36" target="eqpSWVRwXgy1ZHIJhN9i-29">
          <mxGeometry relative="1" as="geometry" />
        </mxCell>
        <mxCell id="-6jR4r3HytJgTuYuLb_f-58" style="edgeStyle=orthogonalEdgeStyle;rounded=0;orthogonalLoop=1;jettySize=auto;html=1;exitX=1;exitY=0.5;exitDx=0;exitDy=0;entryX=1;entryY=0.5;entryDx=0;entryDy=0;" edge="1" parent="1" source="-6jR4r3HytJgTuYuLb_f-36" target="eqpSWVRwXgy1ZHIJhN9i-36">
          <mxGeometry relative="1" as="geometry">
            <Array as="points">
              <mxPoint x="1090" y="1690" />
              <mxPoint x="1090" y="2025" />
            </Array>
          </mxGeometry>
        </mxCell>
        <mxCell id="-6jR4r3HytJgTuYuLb_f-36" value="" style="rhombus;whiteSpace=wrap;html=1;" vertex="1" parent="1">
          <mxGeometry x="880" y="1670" width="40" height="40" as="geometry" />
        </mxCell>
        <mxCell id="-6jR4r3HytJgTuYuLb_f-41" value="Is Gemini able to make a prediction?" style="text;html=1;align=center;verticalAlign=middle;resizable=0;points=[];autosize=1;strokeColor=none;fillColor=none;" vertex="1" parent="1">
          <mxGeometry x="910" y="1650" width="220" height="30" as="geometry" />
        </mxCell>
        <mxCell id="-6jR4r3HytJgTuYuLb_f-44" value="If Yes" style="text;html=1;align=center;verticalAlign=middle;resizable=0;points=[];autosize=1;strokeColor=none;fillColor=none;" vertex="1" parent="1">
          <mxGeometry x="805" y="1698" width="50" height="30" as="geometry" />
        </mxCell>
        <mxCell id="-6jR4r3HytJgTuYuLb_f-45" value="If No" style="text;html=1;align=center;verticalAlign=middle;resizable=0;points=[];autosize=1;strokeColor=none;fillColor=none;" vertex="1" parent="1">
          <mxGeometry x="915" y="1698" width="50" height="30" as="geometry" />
        </mxCell>
        <mxCell id="-6jR4r3HytJgTuYuLb_f-50" value="No Sentiment Analysis" style="rounded=0;whiteSpace=wrap;html=1;" vertex="1" parent="1">
          <mxGeometry x="1030" y="1150" width="120" height="60" as="geometry" />
        </mxCell>
        <mxCell id="-6jR4r3HytJgTuYuLb_f-54" value="Display Error Message" style="rounded=0;whiteSpace=wrap;html=1;" vertex="1" parent="1">
          <mxGeometry x="1290" y="450" width="120" height="60" as="geometry" />
        </mxCell>
        <mxCell id="-6jR4r3HytJgTuYuLb_f-56" value="Display Error Message" style="rounded=0;whiteSpace=wrap;html=1;" vertex="1" parent="1">
          <mxGeometry x="1160" y="690" width="120" height="60" as="geometry" />
        </mxCell>
        <mxCell id="-6jR4r3HytJgTuYuLb_f-57" value="Display Error Message" style="rounded=0;whiteSpace=wrap;html=1;" vertex="1" parent="1">
          <mxGeometry x="1030" y="1810" width="120" height="60" as="geometry" />
        </mxCell>
        <mxCell id="-6jR4r3HytJgTuYuLb_f-59" value="" style="edgeStyle=orthogonalEdgeStyle;rounded=0;orthogonalLoop=1;jettySize=auto;html=1;entryX=0.064;entryY=0.743;entryDx=0;entryDy=0;entryPerimeter=0;" edge="1" parent="1" source="eqpSWVRwXgy1ZHIJhN9i-71" target="-6jR4r3HytJgTuYuLb_f-52">
          <mxGeometry relative="1" as="geometry">
            <mxPoint x="737" y="2032" as="targetPoint" />
            <Array as="points">
              <mxPoint x="-22" y="865" />
              <mxPoint x="-22" y="2025" />
              <mxPoint x="48" y="2025" />
            </Array>
            <mxPoint x="80" y="865" as="sourcePoint" />
          </mxGeometry>
        </mxCell>
        <mxCell id="-6jR4r3HytJgTuYuLb_f-60" style="edgeStyle=orthogonalEdgeStyle;rounded=0;orthogonalLoop=1;jettySize=auto;html=1;entryX=0;entryY=0.5;entryDx=0;entryDy=0;" edge="1" parent="1" source="-6jR4r3HytJgTuYuLb_f-52" target="eqpSWVRwXgy1ZHIJhN9i-36">
          <mxGeometry relative="1" as="geometry" />
        </mxCell>
        <mxCell id="-6jR4r3HytJgTuYuLb_f-52" value="Display Error Message:" style="whiteSpace=wrap;html=1;" vertex="1" parent="1">
          <mxGeometry x="40" y="1990" width="130" height="70" as="geometry" />
        </mxCell>
      </root>
    </mxGraphModel>
  </diagram>
</mxfile>
